<?xml version="1.0" encoding="utf-8"?>
<!-- Generator: Adobe Illustrator 21.0.0, SVG Export Plug-In . SVG Version: 6.00 Build 0)  -->
<svg version="1.1" id="Layer_1" xmlns="http://www.w3.org/2000/svg" xmlns:xlink="http://www.w3.org/1999/xlink" x="0px" y="0px"
	 viewBox="0 0 145.5 197" style="enable-background:new 0 0 145.5 197;" xml:space="preserve">
<style type="text/css">
	.st0{fill:#B6BCC6;}
	.st1{fill:#CBD0D9;}
	.st2{fill:#A1A6AF;}
	.st3{fill:#8993A3;}
	.st4{fill:#053F00;}
	.st5{fill:#798290;}
</style>
<path class="st0" d="M119.2,197H25.9c-5.4,0-9.9-4.4-9.9-9.9V63.9c0-5.4,4.4-9.9,9.9-9.9h93.3c5.4,0,9.9,4.4,9.9,9.9v123.3
	C129,192.6,124.6,197,119.2,197z"/>
<path class="st1" d="M73.5,34H9.2c-2.9,0-5.4,2.1-5.9,5L0.1,58c-0.6,3.6,2.2,7,5.9,7h67.5l0,0l0,0h66.1c3.7,0,6.5-3.3,5.9-7
	L142.2,39c-0.5-2.9-3-5-5.9-5H73.5z"/>
<rect x="16" y="65" class="st2" width="113" height="26"/>
<path class="st3" d="M42.7,185h-0.4c-5.1,0-9.3-4.2-9.3-9.3V81.3c0-5.1,4.2-9.3,9.3-9.3h0.4c5.1,0,9.3,4.2,9.3,9.3v94.4
	C52,180.8,47.9,185,42.7,185z"/>
<polyline class="st4" points="52,91 52,176.1 52,176.1 "/>
<path class="st5" d="M33,91V81c0-5.1,4.2-9.3,9.3-9.3h0.4c5.1,0,9.3,4.2,9.3,9.3v10"/>
<line class="st4" x1="34" y1="176" x2="34" y2="91"/>
<path class="st3" d="M72.7,185h-0.4c-5.1,0-9.3-4.2-9.3-9.3V81.3c0-5.1,4.2-9.3,9.3-9.3h0.4c5.1,0,9.3,4.2,9.3,9.3v94.4
	C82,180.8,77.9,185,72.7,185z"/>
<line class="st3" x1="176" y1="99" x2="176" y2="194"/>
<path class="st3" d="M103.7,185h-0.4c-5.1,0-9.3-4.2-9.3-9.3V81.3c0-5.1,4.2-9.3,9.3-9.3h0.4c5.1,0,9.3,4.2,9.3,9.3v94.4
	C113,180.8,108.9,185,103.7,185z"/>
<path class="st5" d="M94,91V81c0-5.1,4.2-9.3,9.3-9.3h0.4c5.1,0,9.3,4.2,9.3,9.3v10"/>
<path class="st5" d="M63,91V81c0-5.1,4.2-9.3,9.3-9.3h0.4c5.1,0,9.3,4.2,9.3,9.3v10"/>
<line class="st1" x1="251.5" y1="-58.9" x2="251.5" y2="-58.9"/>
<line class="st1" x1="87" y1="17" x2="87" y2="0"/>
<line class="st1" x1="87" y1="11" x2="87" y2="17"/>
<line class="st1" x1="87" y1="6" x2="87" y2="11"/>
<line class="st1" x1="87" y1="0" x2="87" y2="6"/>
<path class="st1" d="M-49.9,18.1"/>
<path class="st0" d="M56.5,25.7h31c0,0,0,23.3,0,23.3h13V14H88.3H56.7c-4.1,0-8.1,0-12.2,0c0,11.7,0,23.3,0,35h12c0,0,0-21,0-21"/>
<rect x="33" y="34" class="st1" width="76.4" height="16.8"/>
</svg>
